<mxfile host="app.diagrams.net" agent="Mozilla/5.0 (Macintosh; Intel Mac OS X 10_15_7) AppleWebKit/537.36 (KHTML, like Gecko) Chrome/137.0.0.0 Safari/537.36" version="27.1.4">
  <diagram name="Página-1" id="8Nr6kVrE9SyybX-va9n5">
    <mxGraphModel dx="848" dy="546" grid="1" gridSize="5" guides="1" tooltips="1" connect="1" arrows="1" fold="1" page="1" pageScale="1" pageWidth="1169" pageHeight="827" math="0" shadow="0">
      <root>
        <mxCell id="0" />
        <mxCell id="1" parent="0" />
        <mxCell id="F-6HF-LXUj0dGaGDXy4D-64" value="" style="endArrow=classic;startArrow=classic;html=1;rounded=0;exitX=0.5;exitY=0;exitDx=0;exitDy=0;strokeWidth=6;endSize=3;startSize=3;entryX=0.5;entryY=1;entryDx=0;entryDy=0;" edge="1" parent="1" source="F-6HF-LXUj0dGaGDXy4D-39">
          <mxGeometry width="50" height="50" relative="1" as="geometry">
            <mxPoint x="305" y="410" as="sourcePoint" />
            <mxPoint x="307.5" y="300" as="targetPoint" />
          </mxGeometry>
        </mxCell>
        <mxCell id="F-6HF-LXUj0dGaGDXy4D-67" value="&lt;b&gt;&lt;font style=&quot;font-size: 15px;&quot;&gt;Interfaz southbound&lt;/font&gt;&lt;/b&gt;&lt;div&gt;&lt;b&gt;&lt;font style=&quot;font-size: 15px;&quot;&gt;(Protocolo Openflow)&lt;/font&gt;&lt;/b&gt;&lt;/div&gt;" style="text;html=1;align=center;verticalAlign=middle;whiteSpace=wrap;rounded=0;" vertex="1" parent="1">
          <mxGeometry x="290" y="340" width="224" height="30" as="geometry" />
        </mxCell>
        <mxCell id="F-6HF-LXUj0dGaGDXy4D-44" value="" style="shape=mxgraph.cisco.switches.generic_softswitch;html=1;pointerEvents=1;dashed=0;fillColor=#FF3333;strokeColor=#ffffff;strokeWidth=2;verticalLabelPosition=bottom;verticalAlign=top;align=center;outlineConnect=0;" vertex="1" parent="1">
          <mxGeometry x="290" y="235" width="35" height="55" as="geometry" />
        </mxCell>
        <mxCell id="F-6HF-LXUj0dGaGDXy4D-69" value="&lt;span style=&quot;font-size: 15px;&quot;&gt;&lt;b&gt;Controlador Openflow&lt;/b&gt;&lt;/span&gt;" style="text;html=1;align=center;verticalAlign=middle;whiteSpace=wrap;rounded=0;" vertex="1" parent="1">
          <mxGeometry x="195.5" y="200" width="224" height="30" as="geometry" />
        </mxCell>
        <mxCell id="F-6HF-LXUj0dGaGDXy4D-39" value="" style="rounded=1;whiteSpace=wrap;html=1;arcSize=0;" vertex="1" parent="1">
          <mxGeometry x="95" y="410" width="425" height="240" as="geometry" />
        </mxCell>
        <mxCell id="F-6HF-LXUj0dGaGDXy4D-15" value="" style="shape=mxgraph.cisco.switches.workgroup_switch;html=1;pointerEvents=1;dashed=0;fillColor=#036897;strokeColor=#ffffff;strokeWidth=2;verticalLabelPosition=bottom;verticalAlign=top;align=center;outlineConnect=0;" vertex="1" parent="1">
          <mxGeometry x="485" y="630" width="96" height="50" as="geometry" />
        </mxCell>
        <mxCell id="F-6HF-LXUj0dGaGDXy4D-22" value="&lt;span style=&quot;font-size: 15px;&quot;&gt;&lt;b&gt;Switch Openflow&lt;/b&gt;&lt;/span&gt;" style="text;html=1;align=center;verticalAlign=middle;whiteSpace=wrap;rounded=0;" vertex="1" parent="1">
          <mxGeometry x="195.5" y="660" width="224" height="30" as="geometry" />
        </mxCell>
        <mxCell id="F-6HF-LXUj0dGaGDXy4D-70" value="Agente Openflow" style="rounded=0;whiteSpace=wrap;html=1;" vertex="1" parent="1">
          <mxGeometry x="200" y="410" width="220" height="30" as="geometry" />
        </mxCell>
        <mxCell id="F-6HF-LXUj0dGaGDXy4D-71" value="Tabla de Flujo 1" style="whiteSpace=wrap;html=1;aspect=fixed;" vertex="1" parent="1">
          <mxGeometry x="130" y="545" width="55" height="55" as="geometry" />
        </mxCell>
        <mxCell id="F-6HF-LXUj0dGaGDXy4D-72" value="Tabla de Flujo 2" style="whiteSpace=wrap;html=1;aspect=fixed;" vertex="1" parent="1">
          <mxGeometry x="215" y="545" width="55" height="55" as="geometry" />
        </mxCell>
        <mxCell id="F-6HF-LXUj0dGaGDXy4D-73" value="Tabla de Flujo 3" style="whiteSpace=wrap;html=1;aspect=fixed;" vertex="1" parent="1">
          <mxGeometry x="300" y="545" width="55" height="55" as="geometry" />
        </mxCell>
        <mxCell id="F-6HF-LXUj0dGaGDXy4D-74" value="Tabla de Flujo N" style="whiteSpace=wrap;html=1;aspect=fixed;" vertex="1" parent="1">
          <mxGeometry x="430" y="545" width="55" height="55" as="geometry" />
        </mxCell>
        <mxCell id="F-6HF-LXUj0dGaGDXy4D-76" value="Tabla de grupo" style="rounded=0;whiteSpace=wrap;html=1;" vertex="1" parent="1">
          <mxGeometry x="130" y="460" width="110" height="60" as="geometry" />
        </mxCell>
        <mxCell id="F-6HF-LXUj0dGaGDXy4D-78" value="Tabla de métricas" style="rounded=0;whiteSpace=wrap;html=1;" vertex="1" parent="1">
          <mxGeometry x="375" y="460" width="110" height="60" as="geometry" />
        </mxCell>
        <mxCell id="F-6HF-LXUj0dGaGDXy4D-79" value="" style="endArrow=classic;html=1;rounded=0;endSize=2;startSize=2;strokeWidth=3;exitX=1;exitY=0.5;exitDx=0;exitDy=0;entryX=0;entryY=0.5;entryDx=0;entryDy=0;" edge="1" parent="1" source="F-6HF-LXUj0dGaGDXy4D-71" target="F-6HF-LXUj0dGaGDXy4D-72">
          <mxGeometry width="50" height="50" relative="1" as="geometry">
            <mxPoint x="225" y="570" as="sourcePoint" />
            <mxPoint x="275" y="520" as="targetPoint" />
          </mxGeometry>
        </mxCell>
        <mxCell id="F-6HF-LXUj0dGaGDXy4D-81" value="" style="endArrow=classic;html=1;rounded=0;endSize=2;startSize=2;strokeWidth=3;exitX=1;exitY=0.5;exitDx=0;exitDy=0;entryX=0;entryY=0.5;entryDx=0;entryDy=0;" edge="1" parent="1" source="F-6HF-LXUj0dGaGDXy4D-72" target="F-6HF-LXUj0dGaGDXy4D-73">
          <mxGeometry width="50" height="50" relative="1" as="geometry">
            <mxPoint x="270" y="575" as="sourcePoint" />
            <mxPoint x="300" y="575" as="targetPoint" />
          </mxGeometry>
        </mxCell>
        <mxCell id="F-6HF-LXUj0dGaGDXy4D-82" value="" style="endArrow=classic;html=1;rounded=0;endSize=2;startSize=2;strokeWidth=3;exitX=1;exitY=0.5;exitDx=0;exitDy=0;entryX=0;entryY=0.5;entryDx=0;entryDy=0;dashed=1;" edge="1" parent="1" source="F-6HF-LXUj0dGaGDXy4D-73" target="F-6HF-LXUj0dGaGDXy4D-74">
          <mxGeometry width="50" height="50" relative="1" as="geometry">
            <mxPoint x="355" y="575" as="sourcePoint" />
            <mxPoint x="385" y="575" as="targetPoint" />
          </mxGeometry>
        </mxCell>
      </root>
    </mxGraphModel>
  </diagram>
</mxfile>
